<svg xmlns="http://www.w3.org/2000/svg" viewBox="0 0 834.88 432"><defs><style>.cls-1{opacity:0.7;}.cls-2,.cls-4,.cls-5{fill:#fff;}.cls-3{fill:#006776;opacity:0.5;}.cls-4{font-size:80px;}.cls-4,.cls-5{font-family:03SmartFontUI, "03SmartFontUI 83pv-RKSJ-H";}.cls-5{font-size:25px;}.cls-6{letter-spacing:-0.5em;}</style></defs><title>BulletBt</title><g id="レイヤー_2" data-name="レイヤー 2"><g id="MENU"><g id="枠"><g class="cls-1"><path class="cls-2" d="M389.75,154.85l18.95-9.15a80.72,80.72,0,0,1-8.54-14.09c-7.46-15.62-14.89-41.87,3.78-68.75a5.17,5.17,0,0,1,4.12-2c1.45.09,1.95,1.13,1.12,2.32-17.3,24.6-10.62,50.36-3.18,65.6A87.11,87.11,0,0,0,411.78,139c1.59,2.39,2.64,3.67,2.64,3.68l.13.2,80.13-38.67c-22-45.63-63.36-71.29-92.34-57.31S367.73,109.21,389.75,154.85Z"/><rect class="cls-2" x="449.37" y="122.8" width="88.95" height="164.14" transform="translate(-39.96 235) rotate(-25.76)"/><rect class="cls-2" x="427.99" y="149.52" width="21.02" height="164.14" transform="translate(-57.07 213.6) rotate(-25.76)"/><rect class="cls-2" x="454.31" y="289.8" width="135.87" height="11.12" transform="translate(-76.46 256.33) rotate(-25.76)"/></g><polygon class="cls-3" points="356.71 396 356.71 342 834.88 342 834.88 0 164.83 0 0 432 356.71 432 356.71 396"/></g><g id="文字"><text class="cls-4" transform="translate(310.6 180.37)">銃弾合成</text><text class="cls-5" transform="translate(104.39 279.48)">現在所持しているアイテムから銃弾を合成することができます<tspan class="cls-6" x="700" y="0">。</tspan></text></g></g></g></svg>