<svg xmlns="http://www.w3.org/2000/svg" viewBox="0 0 1860.3 1013"><defs><style>.cls-1,.cls-3{opacity:0.7;}.cls-12,.cls-2,.cls-3,.cls-6,.cls-7,.cls-8,.cls-9{fill:#fff;}.cls-4{fill:#006776;opacity:0.5;}.cls-5{fill:none;stroke:#fff;stroke-miterlimit:10;stroke-width:5px;}.cls-6{font-size:120px;}.cls-12,.cls-6,.cls-7,.cls-8,.cls-9{font-family:03SmartFontUI, "03SmartFontUI 83pv-RKSJ-H";}.cls-7{font-size:80px;}.cls-8{font-size:70px;}.cls-9{font-size:32px;}.cls-10{letter-spacing:0.25em;}.cls-11{letter-spacing:-0.5em;}.cls-12{font-size:25px;}</style></defs><title>homeBt_1</title><g id="レイヤー_2" data-name="レイヤー 2"><g id="MENU"><g id="枠"><g class="cls-1"><path class="cls-2" d="M326.8,865.34a45.57,45.57,0,0,0-69,59.15L247.18,935.1l-3.54-3.57-43.16,42.88,17.19,17.3,43.16-42.88L257,945l10.64-10.64a45.49,45.49,0,0,0,59.15-4.52A45.65,45.65,0,0,0,326.8,865.34Zm-32.25,67.39a35.14,35.14,0,1,1,24.86-10.3A34.87,34.87,0,0,1,294.55,932.73Z"/><path class="cls-2" d="M279,872.61l.92,1.48.92,1.48c.69-.43,1.41-.77,2.13-1.13a26,26,0,0,1,25.29,1.12,24.62,24.62,0,0,1,2.87,2.11c.61.51,1.21,1,1.77,1.58l1.23-1.24,1.23-1.23A29.4,29.4,0,0,0,279,872.61Z"/><path class="cls-2" d="M302.86,922.16a26.9,26.9,0,0,1-18.79-.9,24.91,24.91,0,0,1-3.91-2.09l-1,1.45-1,1.45A29.61,29.61,0,0,0,304,925.46l-.56-1.65Z"/></g><path class="cls-3" d="M681,318.13a114.1,114.1,0,1,0-212.41,57.92L566.92,568.8,672.25,363.54h-.64A113.63,113.63,0,0,0,681,318.13Zm-114.1,24.14a34.65,34.65,0,1,1,34.65-34.65A34.66,34.66,0,0,1,566.92,342.27Z"/><g class="cls-1"><path class="cls-2" d="M1412.67,733.35l18.95-9.15a80.72,80.72,0,0,1-8.54-14.09c-7.46-15.62-14.89-41.87,3.78-68.75a5.17,5.17,0,0,1,4.12-2c1.45.09,2,1.13,1.12,2.32-17.3,24.6-10.62,50.36-3.18,65.6a87.11,87.11,0,0,0,5.78,10.21c1.59,2.39,2.64,3.67,2.64,3.68l.13.2,80.13-38.67c-22-45.63-63.36-71.29-92.34-57.31S1390.65,687.71,1412.67,733.35Z"/><rect class="cls-2" x="1472.29" y="701.3" width="88.95" height="164.14" transform="translate(-189.73 737.07) rotate(-25.76)"/><rect class="cls-2" x="1450.91" y="728.02" width="21.02" height="164.14" transform="translate(-206.84 715.67) rotate(-25.76)"/><rect class="cls-2" x="1477.23" y="868.3" width="135.87" height="11.12" transform="translate(-226.23 758.41) rotate(-25.76)"/></g><g class="cls-1"><path class="cls-2" d="M1599.77,186.14l-71.22,39.63a4.21,4.21,0,0,1-2.07.54h-81.61a4.66,4.66,0,0,0-4.49,4.82V359.49a4.66,4.66,0,0,0,4.49,4.82h81.61a4.21,4.21,0,0,1,2.07.54l71.22,39.63c3,1.67,6.56-.66,6.56-4.27V190.41C1606.33,186.8,1602.76,184.47,1599.77,186.14Z"/><path class="cls-2" d="M1642.91,231.45V358.84c0,6.44,10,6.45,10,0V231.45C1652.91,225,1642.91,225,1642.91,231.45Z"/><path class="cls-2" d="M1685.5,216.48V376c0,6.43,10,6.44,10,0V216.48C1695.5,210.05,1685.5,210,1685.5,216.48Z"/><path class="cls-2" d="M1726.28,196.93V393.69c0,6.43,10,6.44,10,0V196.93C1736.28,190.5,1726.28,190.49,1726.28,196.93Z"/></g><polygon class="cls-4" points="1078.11 794.5 1379.63 2.5 2.5 2.5 2.5 794.5 1078.11 794.5"/><polygon class="cls-5" points="1078.11 794.5 1379.63 2.5 2.5 2.5 2.5 794.5 1078.11 794.5"/><polygon class="cls-4" points="2.5 830.5 2.5 1010.5 995.88 1010.5 1064.4 830.5 2.5 830.5"/><polygon class="cls-5" points="2.5 830.5 2.5 1010.5 995.88 1010.5 1064.4 830.5 2.5 830.5"/><polygon class="cls-4" points="1857.8 2.5 1410.67 2.5 1201.26 546.27 1857.8 546.27 1857.8 2.5"/><polygon class="cls-5" points="1857.8 2.5 1410.67 2.5 1201.26 546.27 1857.8 546.27 1857.8 2.5"/><polygon class="cls-5" points="1379.63 974.5 1379.63 920.5 1857.8 920.5 1857.8 578.5 1187.75 578.5 1022.92 1010.5 1379.63 1010.5 1379.63 974.5"/><polygon class="cls-4" points="1379.63 974.5 1379.63 920.5 1857.8 920.5 1857.8 578.5 1187.75 578.5 1022.92 1010.5 1379.63 1010.5 1379.63 974.5"/></g><g id="文字"><text class="cls-6" transform="translate(223.21 294.21)">MAP<tspan x="0" y="174" xml:space="preserve"> &amp; 作戦報告</tspan></text><text class="cls-7" transform="translate(1625.51 191.8)">音声<tspan x="-160" y="126">ファイル</tspan></text><text class="cls-8" transform="translate(126.29 946.5)">アイテム</text><text class="cls-7" transform="translate(1333.52 758.87)">銃弾合成</text><text class="cls-9" transform="translate(265.16 609.72)">MA<tspan class="cls-10" x="48.77" y="0">P</tspan><tspan x="75.01" y="0">を見ることができます</tspan><tspan class="cls-11" x="395.01" y="0">。</tspan><tspan x="0" y="54">作戦をトムに報告することができます</tspan><tspan class="cls-11" x="544" y="54">。</tspan></text><text class="cls-12" transform="translate(452.83 909.38)">現在所持しているアイテムを確認したり<tspan class="cls-11" x="450" y="0">、</tspan><tspan x="0" y="43.75">新しく手に入れたりすることができます</tspan><tspan class="cls-11" x="450" y="43.75">。</tspan></text><text class="cls-12" transform="translate(1127.31 857.98)">現在所持しているアイテムから銃弾を合成することができます<tspan class="cls-11" x="700" y="0">。</tspan></text><text class="cls-12" transform="translate(1473.01 419.2)">会話を聞くことができます<tspan class="cls-11" x="300" y="0">。</tspan><tspan x="-125" y="43.75">会話のログを確認することができます</tspan><tspan class="cls-11" x="300" y="43.75">。</tspan></text></g></g></g></svg>

