<svg xmlns="http://www.w3.org/2000/svg" viewBox="0 0 1061.9 180"><defs><style>.cls-1{opacity:0.7;}.cls-2,.cls-4,.cls-5{fill:#fff;}.cls-3{fill:#006776;opacity:0.5;}.cls-4{font-size:70px;}.cls-4,.cls-5{font-family:03SmartFontUI, "03SmartFontUI 83pv-RKSJ-H";}.cls-5{font-size:25px;}.cls-6{letter-spacing:-0.5em;}</style></defs><title>itemBt</title><g id="レイヤー_2" data-name="レイヤー 2"><g id="MENU"><g id="枠"><g class="cls-1"><path class="cls-2" d="M324.3,34.84a45.57,45.57,0,0,0-69,59.15L244.68,104.6,241.14,101,198,143.91l17.19,17.3,43.16-42.88-3.82-3.84,10.64-10.64a45.49,45.49,0,0,0,59.15-4.52A45.65,45.65,0,0,0,324.3,34.84Zm-32.25,67.39a35.14,35.14,0,1,1,24.86-10.3A34.87,34.87,0,0,1,292.05,102.23Z"/><path class="cls-2" d="M276.49,42.11l.92,1.48.92,1.48c.69-.43,1.41-.77,2.13-1.13a26,26,0,0,1,25.29,1.12,24.62,24.62,0,0,1,2.87,2.11c.61.51,1.21,1,1.77,1.58l1.23-1.24,1.23-1.23a29.4,29.4,0,0,0-36.36-4.17Z"/><path class="cls-2" d="M300.36,91.66a26.9,26.9,0,0,1-18.79-.9,24.91,24.91,0,0,1-3.91-2.09l-1,1.45-1,1.45A29.61,29.61,0,0,0,301.47,95l-.56-1.65Z"/></g><polygon class="cls-3" points="0 0 0 180 993.38 180 1061.9 0 0 0"/></g><g id="文字"><text class="cls-4" transform="translate(123.79 116)">アイテム</text><text class="cls-5" transform="translate(450.33 78.88)">現在所持しているアイテムを確認したり<tspan class="cls-6" x="450" y="0">、</tspan><tspan x="0" y="43.75">新しく手に入れたりすることができます</tspan><tspan class="cls-6" x="450" y="43.75">。</tspan></text></g></g></g></svg>