<svg xmlns="http://www.w3.org/2000/svg" viewBox="0 0 1377.13 792"><defs><style>.cls-1,.cls-3,.cls-4{fill:#fff;}.cls-1{opacity:0.7;}.cls-2{fill:#006776;opacity:0.5;}.cls-3{font-size:120px;}.cls-3,.cls-4{font-family:03SmartFontUI, "03SmartFontUI 83pv-RKSJ-H";}.cls-4{font-size:32px;}.cls-5{letter-spacing:0.25em;}.cls-6{letter-spacing:-0.5em;}</style></defs><title>mapBt</title><g id="レイヤー_2" data-name="レイヤー 2"><g id="MENU"><g id="枠"><path class="cls-1" d="M678.52,315.63a114.1,114.1,0,1,0-212.41,57.92L564.42,566.3,669.75,361h-.64A113.63,113.63,0,0,0,678.52,315.63Zm-114.1,24.14a34.65,34.65,0,1,1,34.65-34.65A34.66,34.66,0,0,1,564.42,339.77Z"/><polygon class="cls-2" points="1075.61 792 1377.13 0 0 0 0 792 1075.61 792"/></g><g id="文字"><text class="cls-3" transform="translate(220.71 291.71)">MAP<tspan x="0" y="174" xml:space="preserve"> &amp; 作戦報告</tspan></text><text class="cls-4" transform="translate(262.66 607.22)">MA<tspan class="cls-5" x="48.77" y="0">P</tspan><tspan x="75.01" y="0">を見ることができます</tspan><tspan class="cls-6" x="395.01" y="0">。</tspan><tspan x="0" y="54">作戦をトムに報告することができます</tspan><tspan class="cls-6" x="544" y="54">。</tspan></text></g></g></g></svg>