<svg xmlns="http://www.w3.org/2000/svg" viewBox="0 0 656.54 543.77"><defs><style>.cls-1{opacity:0.7;}.cls-2,.cls-4,.cls-5{fill:#fff;}.cls-3{fill:#006776;opacity:0.5;}.cls-4{font-size:80px;}.cls-4,.cls-5{font-family:03SmartFontUI, "03SmartFontUI 83pv-RKSJ-H";}.cls-5{font-size:25px;}.cls-6{letter-spacing:-0.5em;}</style></defs><title>voiceBt</title><g id="レイヤー_2" data-name="レイヤー 2"><g id="MENU"><g id="枠"><g class="cls-1"><path class="cls-2" d="M398.51,183.64l-71.22,39.63a4.21,4.21,0,0,1-2.07.54h-81.6a4.66,4.66,0,0,0-4.49,4.82V357a4.66,4.66,0,0,0,4.49,4.82h81.6a4.21,4.21,0,0,1,2.07.54L398.51,402c3,1.67,6.57-.66,6.57-4.27V187.91C405.08,184.3,401.51,182,398.51,183.64Z"/><path class="cls-2" d="M441.65,229V356.34c0,6.44,10,6.45,10,0V229C451.65,222.52,441.65,222.51,441.65,229Z"/><path class="cls-2" d="M484.25,214V373.49c0,6.43,10,6.44,10,0V214C494.25,207.55,484.25,207.54,484.25,214Z"/><path class="cls-2" d="M525,194.43V391.19c0,6.43,10,6.44,10,0V194.43C535,188,525,188,525,194.43Z"/></g><polygon class="cls-3" points="656.54 0 209.41 0 0 543.77 656.54 543.77 656.54 0"/></g><g id="文字"><text class="cls-4" transform="translate(424.25 189.3)">音声<tspan x="-160" y="126">ファイル</tspan></text><text class="cls-5" transform="translate(271.75 416.7)">会話を聞くことができます<tspan class="cls-6" x="300" y="0">。</tspan><tspan x="-125" y="43.75">会話のログを確認することができます</tspan><tspan class="cls-6" x="300" y="43.75">。</tspan></text></g></g></g></svg>